<svg id="visual" viewBox="0 0 960 540" width="960" height="540" xmlns="http://www.w3.org/2000/svg" xmlns:xlink="http://www.w3.org/1999/xlink" version="1.1"><path d="M0 77L87 50L175 77L262 39L349 71L436 66L524 50L611 71L698 77L785 82L873 44L960 66L960 0L873 0L785 0L698 0L611 0L524 0L436 0L349 0L262 0L175 0L87 0L0 0Z" fill="#00cc8e"></path><path d="M0 152L87 125L175 179L262 136L349 190L436 158L524 201L611 136L698 179L785 179L873 152L960 114L960 64L873 42L785 80L698 75L611 69L524 48L436 64L349 69L262 37L175 75L87 48L0 75Z" fill="#00b98a"></path><path d="M0 212L87 206L175 266L262 212L349 249L436 206L524 271L611 228L698 233L785 271L873 249L960 217L960 112L873 150L785 177L698 177L611 134L524 199L436 156L349 188L262 134L175 177L87 123L0 150Z" fill="#00a784"></path><path d="M0 411L87 287L175 411L262 298L349 336L436 320L524 352L611 341L698 379L785 401L873 438L960 374L960 215L873 247L785 269L698 231L611 226L524 269L436 204L349 247L262 210L175 264L87 204L0 210Z" fill="#00957c"></path><path d="M0 541L87 541L175 541L262 541L349 541L436 541L524 541L611 541L698 541L785 541L873 541L960 541L960 372L873 436L785 399L698 377L611 339L524 350L436 318L349 334L262 296L175 409L87 285L0 409Z" fill="#038373"></path></svg>